<?xml version="1.0" ?><svg viewBox="0 0 512 512" xmlns="http://www.w3.org/2000/svg"><g id="Harebell"><path d="M182.77,139.707l3.26,5.19a160.73,160.73,0,0,0,29.741,35.0053v0a1.5533,1.5533,0,0,0,1.0376.399,1.5822,1.5822,0,0,0,1.5912-1.5851V125.6386a35.63,35.63,0,0,0-35.63-35.63h0a35.63,35.63,0,0,0-35.63,35.63v53.0765a1.5821,1.5821,0,0,0,1.5912,1.585,1.5535,1.5535,0,0,0,1.0378-.3992l.0331-.0293a160.7227,160.7227,0,0,0,29.7211-34.9948Z"/><path d="M336.89,121.2031a27.9709,27.9709,0,0,0-27.9709,27.9708v41.668a1.242,1.242,0,0,0,1.2492,1.2443,1.2191,1.2191,0,0,0,.8144-.3133,126.175,126.175,0,0,0,12.1109-12.2775,39.3552,39.3552,0,0,0,13.0008,23.555,1.2436,1.2436,0,0,0,1.591,0,39.3566,39.3566,0,0,0,13.0011-23.5556,126.148,126.148,0,0,0,12.0846,12.2541l.0258.023a1.22,1.22,0,0,0,.8147.3134,1.242,1.242,0,0,0,1.2492-1.2443V149.174A27.9709,27.9709,0,0,0,336.89,121.2031Z"/><path d="M182.77,150.9232a166.088,166.088,0,0,1-15.862,20.4533A48.838,48.838,0,0,0,181.76,194.27a1.5786,1.5786,0,0,0,2.02,0,48.8367,48.8367,0,0,0,14.8507-22.8922A166.2252,166.2252,0,0,1,182.77,150.9232Z"/><path d="M361.6269,249.9406a2.3648,2.3648,0,0,0-.8834.1763c-14.4121,5.7744-41.24,19.1329-59.43,43.8717-2.6818-25.91-9.7516-48.8405-20.0412-64.1049v-99.81a27.7928,27.7928,0,0,1,48.6105-14.14,33.8528,33.8528,0,0,1,10.6415-.5335,36.7647,36.7647,0,0,0-59.252-5.7642V98.3467A54.7868,54.7868,0,0,0,173.3232,85.1029a41.5657,41.5657,0,0,1,9.4465-1.0942c.079,0,.1566.0056.2355.006a45.7833,45.7833,0,0,1,89.2673,14.332V129.52l-.2881,99.0832c-.0413.0543-.0879.1036-.1273.16-10.5205,14.9893-17.7982,37.8811-20.6534,63.8669-18.16-23.8664-44.2584-36.846-58.4031-42.5132a2.3636,2.3636,0,0,0-.8834-.1763,2.2946,2.2946,0,0,0-1.7077,3.7828c12.9739,15.226,22.4214,41.202,28.355,61.7961H197.47a4.5,4.5,0,0,0-4.4053,5.4175L219.17,446.32a27.9006,27.9006,0,0,0,27.2031,22.1221h59.6231A27.8991,27.8991,0,0,0,333.1993,446.32L359.3057,320.937a4.5,4.5,0,0,0-4.4052-5.4175H334.98c5.9335-20.5941,15.3811-46.57,28.3549-61.7961A2.2946,2.2946,0,0,0,361.6269,249.9406ZM324.3887,444.4854a18.8635,18.8635,0,0,1-18.3925,14.9565H246.3731a18.8648,18.8648,0,0,1-18.3926-14.957L203.003,324.52H349.3672Z"/></g></svg>