<?xml version="1.0" ?><svg viewBox="0 0 512 512" xmlns="http://www.w3.org/2000/svg"><g id="Garden_Mums"><path d="M383.0356,142.4779c-2.6933-4.02-5.2363-7.8169-5.6914-11.2627-.4844-3.6694,1.084-8.3554,2.6016-12.8877,2.1386-6.3877,4.3506-12.9931,1.4287-18.0522s-9.7461-6.4463-16.3477-7.7881c-4.6836-.9517-9.5263-1.936-12.4619-4.19-2.7568-2.1172-4.7734-6.2188-6.9092-10.5611-3.039-6.1821-6.1816-12.5747-12.1132-14.164s-11.85,2.3745-17.5733,6.2085c-4.0205,2.6933-7.8174,5.2368-11.2637,5.6918-3.6679.4883-8.3574-1.0844-12.8886-2.6015-6.3877-2.1382-12.9922-4.3506-18.0518-1.4292s-6.4463,9.7466-7.7881,16.3481c-.9511,4.6836-1.9355,9.5264-4.1894,12.4619-2.1172,2.7569-6.2188,4.7735-10.5616,6.9082-6.1816,3.04-12.5742,6.1827-14.164,12.1148-1.4473,5.4043,1.6982,10.7905,5.3535,16.292l6.6963,13.0239,13.1621,26.4868a53.3385,53.3385,0,0,0,29.1627,26.2314c-2.4941,8.3244-6.6087,23.31-10.9762,44.5-3.9514,19.1737-8.5606,45.8945-12.0311,78.8027H219.6957c-3.3151-21.6178-8.358-44.15-16.0136-64.2265-.0294-.0772-.0754-.142-.1086-.2165a42.96,42.96,0,0,0,21.844-22.15l9.3769-21.71,4.7822-10.669c2.7159-4.6054,5.02-9.1015,3.5948-13.4687-1.5645-4.7984-6.8672-7.0615-11.9942-9.2505-3.5254-1.5049-6.8555-2.9268-8.6191-4.9844-1.88-2.1943-2.8643-5.9853-3.8155-9.6513-1.371-5.2779-2.7871-10.7354-7.0722-12.9126-4.2871-2.1773-9.5293-.1036-14.6,1.9018-3.5225,1.3931-7.1563,2.83-10.0459,2.6084-2.7012-.21-5.8125-2.062-9.1074-4.022-4.792-2.85-9.7491-5.7993-14.543-4.2338-4.7988,1.5654-7.0625,6.8681-9.252,11.9965-1.5039,3.5249-2.9258,6.8545-4.9824,8.6172-2.1953,1.88-5.9863,2.8648-9.6523,3.8164-5.2774,1.37-10.7354,2.7871-12.9121,7.0723s-.1045,9.5283,1.9013,14.5986c1.3926,3.5225,2.833,7.1646,2.6084,10.0464-.2109,2.7012-2.0615,5.813-4.0215,9.1069-2.8515,4.7916-5.7988,9.7461-4.2334,14.5445,1.4268,4.374,5.9815,6.6626,10.94,8.7983l10.0508,5.7525,20.3828,12.01a42.8561,42.8561,0,0,0,30.8943,4.96,4.4667,4.4667,0,0,0,.174.6452c2.9175,7.6495,7.6087,21.7306,11.8809,42.29a63.2433,63.2433,0,0,0-17.7051-14.3832c-13.7109-7.5849-29.0244-9.851-42.0176-6.2182a1.5005,1.5005,0,0,0-1.0341,1.87c3.8261,12.936,13.8847,24.7051,27.5966,32.2895a65.55,65.55,0,0,0,12.033,5.1714h-23.321a4.5011,4.5011,0,0,0-4.4864,4.1436L156.28,353.1581a113.0944,113.0944,0,0,0,24.6591,80.0893l11.1319,13.8584a4.5006,4.5006,0,0,0,3.5088,1.6822h95.2519a4.5006,4.5006,0,0,0,3.5088-1.6822l11.1309-13.8579a113.097,113.097,0,0,0,24.6611-80.09l-1.94-24.4028a4.5009,4.5009,0,0,0-4.4863-4.1436H306.2387a83.4214,83.4214,0,0,0,20.17-7.979c17.664-9.7705,30.6181-24.9219,35.542-41.57a1.5,1.5,0,0,0-1.0342-1.87c-16.7178-4.6763-36.44-1.7549-54.1016,8.0166A79.5187,79.5187,0,0,0,279.759,305.288c6.7332-52.1056,16.1238-87.3044,20.3679-101.5524a53.2638,53.2638,0,0,0,39.3814-7.9628l24.6357-16.3515,12.2051-7.88c5.9756-2.9619,11.4453-6.0776,12.8955-11.4893C390.8344,154.12,386.87,148.2015,383.0356,142.4779ZM186.7475,188.5258c-3.0195-.2354-5.6816-1.8189-8.2558-3.3511-1.3506-.8032-4.1612-2.4839-4.9043-2.2354-.74.2413-2.0733,3.3638-2.6426,4.6973-1.1758,2.7554-2.3916,5.604-4.6914,7.5742-2.3779,2.0376-5.5879,2.8706-8.419,3.606-1.5253.396-4.3642,1.1333-4.8574,1.78-.2031.7241.875,3.4511,1.4541,4.9165,1.0762,2.72,2.2959,5.8042,2.0528,8.9262-.2354,3.0191-1.8194,5.6812-3.3516,8.2554-.7412,1.2461-2.4775,4.1636-2.2354,4.9038a4.5,4.5,0,1,1-8.5566,2.792c-1.5078-4.624,1.0234-8.8789,3.0576-12.2978.91-1.5284,2.041-3.43,2.1133-4.3531.082-1.0473-.7666-3.1928-1.4492-4.9165-1.4346-3.6284-3.2207-8.1435-1.0928-12.33s6.8272-5.4068,10.6025-6.3873c1.795-.4658,4.0284-1.0459,4.8262-1.7294.7031-.6026,1.5713-2.6377,2.27-4.273,1.5625-3.6592,3.5058-8.2124,8.1289-9.7207,4.62-1.5059,8.8779,1.0234,12.2968,3.0576,1.5284.9092,3.4307,2.041,4.3535,2.1128,1.0342.0791,3.1934-.7666,4.917-1.4482,3.628-1.4356,8.1416-3.22,12.33-1.0938,4.1875,2.1279,5.4072,6.8272,6.3877,10.603.4658,1.7945,1.0459,4.0279,1.73,4.8257.6025.7036,2.6377,1.5723,4.2734,2.27,3.6582,1.5621,8.212,3.5059,9.72,8.1294a4.5,4.5,0,0,1-8.5567,2.79c-.2412-.74-3.3633-2.0728-4.6972-2.6421-2.7549-1.1763-5.6036-2.3926-7.5743-4.6919-2.0371-2.3779-2.87-5.5879-3.6054-8.42-.3965-1.5249-1.1328-4.3633-1.78-4.857-.7168-.2021-3.45.8755-4.916,1.4551C192.9526,187.55,189.8608,188.7714,186.7475,188.5258ZM321.1616,353.871a104.1358,104.1358,0,0,1-22.707,73.7407l-9.78,12.1763H197.7368l-9.7813-12.1768a104.1283,104.1283,0,0,1-22.7041-73.74l1.6094-20.26H319.55ZM364.0844,159.87a4.5,4.5,0,1,1-8.6933-2.3291c.3848-1.4351-1.7285-4.59-3.2725-6.894-2.0127-3.0049-4.0937-6.1123-4.5547-9.6055-.4785-3.6235.7393-7.2607,1.9161-10.7783.8076-2.4126,2.0283-6.0581,1.373-7.1924s-4.4219-1.9-6.9141-2.4063c-3.6357-.7387-7.3945-1.5029-10.2939-3.73-2.794-2.1459-4.4443-5.5019-6.04-8.7475-1.2237-2.4888-2.9-5.897-4.335-6.2817-1.4287-.3858-4.5889,1.729-6.8936,3.2724-3.0048,2.0132-6.1123,4.0947-9.6054,4.5562-3.627.478-7.2618-.74-10.7793-1.917-2.4121-.8081-6.0567-2.0264-7.1914-1.3736-1.1338.6548-1.8994,4.4219-2.4063,6.9146-.7392,3.6352-1.5029,7.3945-3.73,10.2944-2.1465,2.794-5.5019,4.4444-8.748,6.04-2.4883,1.2236-5.8965,2.8989-6.2813,4.3339a4.5,4.5,0,1,1-8.6933-2.3291c1.4414-5.38,6.7431-7.9873,11.0039-10.0815,2.21-1.0869,4.7148-2.3184,5.58-3.4453.96-1.2495,1.538-4.0947,2.0478-6.605.9756-4.7969,2.08-10.2339,6.7266-12.916,4.6445-2.6836,9.9072-.9219,14.5488.6328,2.4287.8135,5.1748,1.7368,6.7441,1.5288,1.4082-.186,3.7276-1.7392,5.7735-3.11,3.9433-2.6421,8.8447-5.9346,14.2334-4.4888,5.38,1.4414,7.9873,6.7436,10.081,11.0039,1.0869,2.21,2.3194,4.7153,3.4463,5.5811,1.249.9589,4.0938,1.5371,6.6035,2.0473,4.7969.9746,10.2344,2.08,12.917,6.7261s.9209,9.9077-.6328,14.5493c-.8135,2.4292-1.7353,5.1821-1.5293,6.7437.1865,1.4087,1.74,3.728,3.11,5.7744C362.2378,149.5819,365.5259,154.4906,364.0844,159.87Z"/></g></svg>