<?xml version="1.0" ?><svg viewBox="0 0 512 512" xmlns="http://www.w3.org/2000/svg"><g id="Rubber_Plant"><path d="M372.2411,157.1447a24.7245,24.7245,0,0,0-25.6963.2554,101.69,101.69,0,0,0-34.6582,35.5107c-14.0464,24.0215-17.7205,52.3528-10.1257,77.8347-12.1263,19.5581-28.0223,24.1319-35.5852,25.18V189.5522c9.8283-1.1084,32.72-7.0061,47.4043-37.0847,22.29-5.7752,41.8632-20.8033,54.038-41.625a91.3393,91.3393,0,0,0,12.5293-42.7774,22.845,22.845,0,0,0-34.75-20.3183,91.3388,91.3388,0,0,0-31.1338,31.8984c-12.5744,21.5056-15.893,46.8582-9.1616,69.6923-12.3728,24.6413-30.6457,30.0073-38.9262,31.1561V153.895c6.9256-22.9627,3.6467-48.5267-9.0186-70.1873a91.3288,91.3288,0,0,0-31.1338-31.8984,22.8448,22.8448,0,0,0-34.75,20.3183,91.3416,91.3416,0,0,0,12.5293,42.7774c12.0535,20.6141,31.3591,35.55,53.3731,41.45V258.9221h-3.0079c-.0507,0-.124.0014-.1757.0034-.99.0351-21.0838.4113-36.8555-20.9741,8.0908-27.5979,4.05-58.2254-11.1631-84.2085a110.5051,110.5051,0,0,0-37.6914-38.5748,26.8964,26.8964,0,0,0-40.9,23.9463,110.506,110.506,0,0,0,15.19,51.7481c14.8385,25.3435,38.73,43.5847,65.9026,50.4541,17.4165,25.366,40.851,26.6133,45.2195,26.6133.2461,0,.4326-.0039.5527-.0078h2.9288V322.52H189.3514a4.5,4.5,0,0,0-4.4013,5.4355l6.0605,28.5079.0006.0019,12.227,57.5117a38.36,38.36,0,0,1-2.8213,24.2242,20.642,20.642,0,0,0,18.665,29.456h85.1875A20.6412,20.6412,0,0,0,322.9335,438.2a38.3612,38.3612,0,0,1-2.8194-24.2232l18.2871-86.0215A4.5,4.5,0,0,0,334,322.52H266.1757V304.9833c9.17-1.0341,29.71-6.2451,44.3488-31.3652,24.8081-6.4269,46.5933-23.1558,60.1463-46.3352a101.678,101.678,0,0,0,13.9492-47.62A24.7226,24.7226,0,0,0,372.2411,157.1447Zm-55.8164-28.66,8.6084-13.5881-5.5947-21.446a4.5,4.5,0,1,1,8.7089-2.2715l3.4742,13.3176,20.2827-32.0164a4.5,4.5,0,0,1,7.6035,4.8165l-35.4795,56.0043a4.5,4.5,0,0,1-7.6035-4.8164ZM253.3,138.2219a4.499,4.499,0,0,1-6.21-1.3931L211.6112,80.8239a4.5,4.5,0,0,1,7.6035-4.8164l20.2822,32.0168,3.4737-13.3181a4.5,4.5,0,0,1,8.709,2.2715l-5.5938,21.4473,8.6074,13.5874A4.5,4.5,0,0,1,253.3,138.2219ZM201.4667,218.22a4.499,4.499,0,0,1-6.21-1.3931l-17.2142-27.1726-21.0377-3.6076a4.5,4.5,0,1,1,1.5214-8.87l13.0267,2.2339-11.7757-18.5879a4.5,4.5,0,0,1,7.6035-4.8164l20.2827,32.0164,3.4742-13.3176a4.5,4.5,0,1,1,8.709,2.2714l-5.5947,21.4461,8.6083,13.5881A4.5,4.5,0,0,1,201.4667,218.22ZM311.3114,412.1056a47.4,47.4,0,0,0,3.4844,29.9385,11.6418,11.6418,0,0,1-10.5264,16.6133H219.0819a11.6427,11.6427,0,0,1-10.5273-16.6133,47.4057,47.4057,0,0,0,3.4863-29.938L200.97,360.028H322.3822Zm37.6338-186.5883a4.5,4.5,0,1,1,2.0683,8.7588l-21.5727,5.0927-7.98,13.9654a4.5,4.5,0,0,1-7.8144-4.4659L329.6058,220.94l-6.6567-20.28a4.5,4.5,0,1,1,8.5508-2.8067l4.122,12.5585,10.917-19.1044a4.5,4.5,0,0,1,7.8145,4.4649L335.5492,228.68Z"/></g></svg>